<?xml version="1.0" encoding="UTF-8"?>
<svg id="Layer_1" data-name="Layer 1" xmlns="http://www.w3.org/2000/svg" viewBox="0 0 118.26 32.56">
  <defs>
    <style>
      .cls-1 {
        fill: #38584b;
      }
    </style>
  </defs>
  <polygon class="cls-1" points="83.34 0 73.36 21.91 91.22 21.91 94.94 14.75 86.64 14.6 93.8 0 83.34 0"/>
  <path class="cls-1" d="M39.82,23.31c1.09,.67,2.41,1.4,3.92,2.13,.88,.42,2.42,1.14,4.4,1.86,3.25,1.18,5.87,1.74,7.88,2.16,1.41,.29,2.51,.47,4.71,.84,1.8,.3,3.23,.51,4.7,.72,1.87,.28,2.9,.43,4.34,.61,.75,.09,2.39,.3,4.31,.47,1.31,.12,4.12,.35,7.74,.42,3.06,.06,5.67,.11,9.07-.2,4.26-.39,7.43-1.13,8.11-1.29,3.15-.75,7.58-2.13,12.57-4.8,1.39-.82,6.48-3.83,6.68-8.47,0-.05,.04-1.02-.21-1.96-1.65-6.23-12.75-8.01-14.9-8.37-2-.33-4.89-.6-8.43-.26,1.46,.68,2.68,1.26,3.61,1.7,2.26,1.08,2.84,1.39,3.55,1.86,1.39,.91,2.19,1.43,2.81,2.48,.23,.38,1.02,1.72,.69,3.3-.27,1.27-1.11,2-2.44,3.15-1.5,1.29-2.91,1.99-4.35,2.69-1.62,.79-2.93,1.23-3.71,1.5-.5,.17-2.5,.84-5.46,1.39-1.22,.23-2.53,.43-4.93,.67-2.17,.22-5.13,.51-9.18,.62-4.36,.12-7.62-.05-10.61-.21-2.43-.13-5.7-.31-9.97-.83-.99-.12-1.67-.21-11.67-1.7-.22-.03-3.02-.45-3.24-.48Z"/>
  <path class="cls-1" d="M67.67,14.56L74.51,0h-10.38l-9.3,18.23L55.63,0h-10.67L25.98,19.38h-1.05s-.79-6.63-.79-6.63c0,0,2.73-.27,3.68-.52,0,0,4.25-.56,4.25-6.47S25.58,0,25.58,0H10.88L0,21.91H10.88l3.17-6.63,.86,6.63h20.9l2.05-2.88h5.87l.07,2.88h28.68l3.24-7.21-8.07-.14ZM20.66,8.88c-.41,.32-.88,.36-1.29,.44-.62,.11-2.51,0-2.51,0l1.66-3.51h1.51c.23,0,1.28,.38,1.44,1.17,.17,.82-.37,1.56-.8,1.9Zm23.28,4.93h-2.34l2.16-3.33h.29l-.11,3.33Z"/>
</svg>