<?xml version="1.0" encoding="UTF-8"?>
<svg id="Layer_1" data-name="Layer 1" xmlns="http://www.w3.org/2000/svg" viewBox="0 0 256 96">
  <defs>
    <style>
      .cls-1 {
        stroke-width: 1.5px;
      }

      .cls-1, .cls-2, .cls-3 {
        fill: none;
        stroke: #38584b;
        stroke-miterlimit: 10;
      }

      .cls-2, .cls-3 {
        stroke-width: 8px;
      }

      .cls-3 {
        stroke-dasharray: 0 0 1.53 7.14;
      }

      .cls-4 {
        fill: #38584b;
      }
    </style>
  </defs>
  <path class="cls-4" d="M5.51,18.42V60.91s178,0,178,0V18.42S5.51,18.42,5.51,18.42ZM181.11,58.51H7.91V20.82H181.11V58.51Z"/>
  <line class="cls-1" x1="6.31" y1="52.88" x2="180.89" y2="52.88"/>
  <g>
    <line class="cls-2" x1="7.77" y1="52.78" x2="8.52" y2="52.78"/>
    <line class="cls-3" x1="15.66" y1="52.78" x2="176.91" y2="52.8"/>
    <line class="cls-2" x1="180.48" y1="52.8" x2="181.23" y2="52.8"/>
  </g>
  <g>
    <path class="cls-4" d="M247.75,66.04l-.18-19.21c0-.11-.02-.22-.05-.33l-5.01-17.15c-1.46-4.91-5.95-8.28-11.07-8.3h-10.45c-1.44-4.41-6.18-6.94-10.81-6.93l-16.58-.02V61.92s-2.05,0-2.05,0V19.75c0-2.43-1.47-7.02-7.02-7.02v2.81c3.96,0,4.21,3.52,4.21,4.21V61.93h-8.43v8.43h-5.76c-.69-4.76-4.74-8.43-9.69-8.43s-9,3.67-9.69,8.43h-3.1c-.69-4.76-4.74-8.43-9.69-8.43s-9,3.67-9.69,8.43l-73.97,.38s0,0,0,0h-2.43c-.69-4.83-4.75-8.49-9.7-8.49s-9,3.67-9.69,8.43h-3.1c-.69-4.76-4.74-8.43-9.69-8.43s-9,3.67-9.69,8.43l-6.64,.05c0,.98-.02,1.93-.01,2.78l6.65-.02c.69,4.76,4.74,8.43,9.69,8.43s9-3.67,9.69-8.43h3.1c.69,4.76,4.74,8.43,9.69,8.43s9.03-3.77,9.71-8.53h2.35s0,0,0,0l74.04-.21c.69,4.76,4.74,8.43,9.69,8.43s9-3.67,9.69-8.43h3.1c.69,4.76,4.74,8.43,9.69,8.43s9-3.67,9.69-8.43h5.76v2.81h30.9v-2.81h4.82c.69,4.76,4.74,8.43,9.69,8.43s8.9-3.99,9.59-8.74l12.01,.06c1.75,0,3.17-1.42,3.17-3.17v-.55c0-1.59-1.17-2.94-2.74-3.15ZM24.13,79.09c-3.87,0-7.02-3.15-7.02-7.02s3.15-7.02,7.02-7.02,7.02,3.15,7.02,7.02-3.15,7.02-7.02,7.02Zm22.47,0c-3.87,0-7.02-3.15-7.02-7.02s3.15-7.02,7.02-7.02,7.02,3.15,7.02,7.02-3.15,7.02-7.02,7.02Zm95.79-.31c-3.87,0-7.02-3.15-7.02-7.02s3.15-7.02,7.02-7.02,7.02,3.15,7.02,7.02-3.15,7.02-7.02,7.02Zm22.47,0c-3.87,0-7.02-3.15-7.02-7.02s3.15-7.02,7.02-7.02,7.02,3.15,7.02,7.02-3.15,7.02-7.02,7.02Zm60.64-14.13c3.87,0,7.02,3.15,7.02,7.02s-3.15,7.02-7.02,7.02c-1.16,0-2.25-.29-3.21-.78-1.81-1.02-3.15-2.81-3.52-4.98-.16-.79-.16-1.6,0-2.39,.53-3.2,3.12-5.53,6.19-5.87,.18-.01,.36-.03,.54-.03Zm-22.72,8.51h-19.66v-8.43h19.66v8.43Zm5.62,0h-2.81v-8.43h2.81v8.43Zm39.7-3.43c0,.43-.35,.78-.79,.79l-11.98-.15c-.69-4.76-4.74-8.43-9.69-8.43s-9,3.67-9.69,8.43l-4.75-.02-.06-8.38-15.24-.15V16.37l14.27,.02c3.89-.02,7.88,2.34,8.73,6.14,.14,.53,.62,.91,1.17,.91h11.36c4.06,.03,7.62,2.7,8.78,6.59l4.96,16.99,.18,20.21c.01,.65,.54,1.18,1.19,1.19h.76c.43,0,.78,.35,.79,.79v.55Z"/>
    <circle class="cls-4" cx="142.39" cy="71.76" r="4.21"/>
    <circle class="cls-4" cx="164.86" cy="71.76" r="4.21"/>
    <circle class="cls-4" cx="225.55" cy="71.69" r="4.21"/>
    <circle class="cls-4" cx="24.12" cy="72.01" r="4.21"/>
    <circle class="cls-4" cx="46.66" cy="72.06" r="4.21"/>
    <path class="cls-4" d="M243.2,47.86c.22-.3,.29-.69,.19-1.05l-4.6-16.13c-.14-.51-.61-.86-1.15-.86h-17.8c-.65,0-1.19,.52-1.19,1.17,0,0,0,.02,0,.02v16.13c0,.65,.52,1.19,1.17,1.19,0,0,.02,0,.02,0h22.4c.38,0,.73-.17,.95-.48Zm-22.17-1.91v-13.74h15.72l3.91,13.74h-19.64Z"/>
    <path class="cls-4" d="M242.03,60.25c-2.78,0-5.03,2.26-5.03,5.03v1.96c0,.66,.53,1.19,1.19,1.19h3.98c.65-.01,1.18-.54,1.19-1.19v-5.8c-.07-.68-.65-1.2-1.34-1.19Zm-1.05,5.8h-1.6v-.76c.01-1.05,.64-1.99,1.6-2.41v3.17Z"/>
  </g>
  <rect class="cls-4" x="204.16" y="18.22" width="10.44" height="2.81"/>
  <rect class="cls-4" x="198.54" y="18.22" width="2.81" height="2.81"/>
</svg>